# xmcd
#
# Track frame offsets:
#   150
#   17382
#   35648
#   55840
#   71636
#   94154
#   114088
#   131284
#   147314
#   166588
#
# Disc length: 2432 seconds
#
# Revision: 0
# Processed by: cddbd v1.5.1PL0 Copyright (c) Steve Scherf et al.
# Submitted via: uFREEDB 1.6.0
#
DISCID=78097e0a
DTITLE=Pop - Anthological Music - Volume 8
DYEAR=1900
DGENRE=Pop
TTITLE0=Can't Let Go - Kim Sheldon
TTITLE1=I Learned From The Best - Melissa
TTITLE2=Linger - Taken By An Angel
TTITLE3=Every Day I Love You - Joint
TTITLE4=I Saved The World Today - Yellow Lake
TTITLE5=Fast Car - Billie Lee
TTITLE6=I'll Take You There - Indicator
TTITLE7=I Want That Way - Magic Man
TTITLE8=If You Had My Love - Barbara Andrews
TTITLE9=Locomotion - Eletronic Stuff
EXTD=
EXTT0=
EXTT1=
EXTT2=
EXTT3=
EXTT4=
EXTT5=
EXTT6=
EXTT7=
EXTT8=
EXTT9=
PLAYORDER=
